<?xml version="1.0" encoding="iso-8859-1"?>
<!-- Uploaded to: SVG Repo, www.svgrepo.com, Generator: SVG Repo Mixer Tools -->
<svg version="1.1" id="Layer_1" xmlns="http://www.w3.org/2000/svg" xmlns:xlink="http://www.w3.org/1999/xlink" 
	 viewBox="0 0 512 512" xml:space="preserve">
<path style="fill:#FB9789;" d="M511.944,251.563C509.574,112.227,395.902,0,256,0C114.615,0,0,114.615,0,256
	c0,130.147,97.121,237.604,222.839,253.865L511.944,251.563z"/>
<path style="fill:#FA7461;" d="M512,256c0-1.484-0.031-2.96-0.056-4.437L327.874,67.493L175.777,462.803l47.062,47.062
	C233.695,511.27,244.762,512,256,512C397.384,512,512,397.384,512,256z"/>
<path style="fill:#FEDCD7;" d="M256,33.391l-32.577,200.348l166.142-11.13C389.565,120.564,325.311,33.391,256,33.391z"/>
<g>
	<rect x="300.522" y="133.565" style="fill:#FCB9B0;" width="22.261" height="22.261"/>
	<rect x="278.261" y="178.087" style="fill:#FCB9B0;" width="22.261" height="22.261"/>
</g>
<path style="fill:#FFFFFF;" d="M256,33.391c-69.311,0-133.565,87.172-133.565,189.217L256,233.739V33.391z"/>
<polygon style="fill:#FFF3AD;" points="317.188,405.473 233.739,383.25 233.739,451.673 336.223,440.543 "/>
<polygon style="fill:#FFFFFF;" points="194.928,405.552 175.777,440.543 256,451.673 256,383.25 "/>
<polygon style="fill:#FFD23E;" points="336.223,440.543 336.223,462.803 256,462.803 240.469,451.673 256,440.543 "/>
<g>
	<rect x="175.783" y="440.543" style="fill:#FFE376;" width="80.228" height="22.261"/>
	<path style="fill:#FFE376;" d="M222.609,233.739L256,405.511l61.188-0.037c17.394-8.963,33.519-21.655,47.289-37.581
		c29.098-33.656,45.123-77.346,45.123-123.024L222.609,233.739z"/>
</g>
<path style="fill:#FFF3AD;" d="M102.4,244.87c0,45.675,16.017,89.363,45.099,123.017c13.805,15.974,29.98,28.698,47.429,37.665
	L256,405.511V233.739L102.4,244.87z"/>
<polygon style="fill:#FFD23E;" points="409.6,222.609 409.6,244.87 256,244.87 238.274,233.739 256,222.609 "/>
<rect x="102.4" y="222.609" style="fill:#FFE376;" width="153.6" height="22.261"/>
</svg>